<?xml version="1.0" standalone="no"?>
<!DOCTYPE svg PUBLIC "-//W3C//DTD SVG 1.1//EN" "http://www.w3.org/Graphics/SVG/1.1/DTD/svg11.dtd" >
<svg xmlns="http://www.w3.org/2000/svg" xmlns:xlink="http://www.w3.org/1999/xlink" version="1.1">
<metadata></metadata>
<defs>
<font id="space_groteskmedium" horiz-adv-x="1269" >
<font-face units-per-em="2048" ascent="1638" descent="-410" />
<missing-glyph horiz-adv-x="522" />
<glyph unicode="&#xfb01;" horiz-adv-x="1368" d="M55 831v179h283v221q0 92 54 147.5t149 55.5h245v-177h-178q-59 0 -59 -61v-186h663v-1010h-211v831h-452v-831h-211v831h-283zM963 1284q0 63 40.5 103t104.5 40q61 0 103 -39.5t42 -103.5q0 -63 -42 -103t-103 -40q-63 0 -104 40t-41 103z" />
<glyph unicode="&#xfb02;" horiz-adv-x="1368" d="M55 831v179h283v221q0 92 54 147.5t149 55.5h260v-177h-193q-59 0 -59 -61v-186h291v-179h-291v-831h-211v831h-283zM1001 0v1434h211v-1434h-211z" />
<glyph unicode="&#xfb03;" horiz-adv-x="2031" d="M55 831v179h283v221q0 92 54 147.5t149 55.5h260v-177h-193q-59 0 -59 -61v-186h452v221q0 92 54.5 147.5t148.5 55.5h246v-177h-178q-59 0 -60 -61v-186h664v-1010h-211v831h-453v-831h-211v831h-452v-831h-211v831h-283zM1626 1284q0 63 41 103t105 40q61 0 102 -39.5 t41 -103.5q0 -63 -41 -103t-102 -40q-63 0 -104.5 40t-41.5 103z" />
<glyph unicode="&#xfb04;" horiz-adv-x="2031" d="M55 831v179h283v221q0 92 54 147.5t149 55.5h260v-177h-193q-59 0 -59 -61v-186h452v221q0 92 54.5 147.5t148.5 55.5h260v-177h-192q-59 0 -60 -61v-186h291v-179h-291v-831h-211v831h-452v-831h-211v831h-283zM1665 0v1434h211v-1434h-211z" />
<glyph horiz-adv-x="0" />
<glyph horiz-adv-x="682" />
<glyph unicode="&#xd;" horiz-adv-x="1228" />
<glyph unicode=" "  horiz-adv-x="522" />
<glyph unicode="&#x09;" horiz-adv-x="522" />
<glyph unicode="&#xa0;" horiz-adv-x="522" />
<glyph unicode="!" horiz-adv-x="565" d="M115 139q0 74 48 120t120 46t120 -46t48 -120t-48 -121t-120 -47t-120 47.5t-48 120.5zM174 428v1006h215v-1006h-215z" />
<glyph unicode="&#x22;" horiz-adv-x="962" d="M115 1302q0 72 47 116t119 44q70 0 116.5 -46t46.5 -120v-213q0 -203 -202 -203h-84v121h69q84 0 84 84v66h-30q-72 0 -119 43t-47 108zM518 1302q0 72 47 116t119 44q70 0 116.5 -46t46.5 -120v-213q0 -203 -202 -203h-84v121h69q84 0 84 84v66h-30q-72 0 -119 43 t-47 108z" />
<glyph unicode="#" horiz-adv-x="1294" d="M84 399v183h242v272h-242v180h242v400h190v-400h262v400h191v-400h241v-180h-241v-272h241v-183h-241v-399h-191v399h-262v-399h-190v399h-242zM516 582h262v272h-262v-272z" />
<glyph unicode="$" horiz-adv-x="1249" d="M84 469v51h219v-51q0 -125 62.5 -198.5t169.5 -94.5v475q-127 31 -220.5 80t-143.5 127t-50 199q0 172 112.5 277.5t301.5 123.5v213h202v-219q176 -27 288 -138.5t112 -305.5v-74h-219v74q0 104 -48.5 163.5t-132.5 81.5v-442q127 -31 223.5 -80t150.5 -128t54 -202 q0 -172 -114.5 -285.5t-313.5 -138.5v-215h-202v215q-201 25 -326 151t-125 341zM340 1063q0 -82 49 -127t146 -74v400q-195 -31 -195 -199zM737 174q104 20 156.5 79.5t52.5 143.5t-54 129t-155 74v-426z" />
<glyph unicode="%" horiz-adv-x="1566" d="M61 1126v15q0 145 89.5 230t240.5 85q150 0 239 -85t89 -230v-15q0 -147 -88 -231t-240 -84t-241 84t-89 231zM158 80l1120 1380l131 -106l-1120 -1381zM233 1120q0 -76 42 -121t116 -45t116 45t42 121v29q0 74 -42 119t-116 45t-116 -45t-42 -119v-29zM848 293v12 q0 147 88 232.5t240 85.5q150 0 239.5 -85t89.5 -233v-12q0 -147 -88.5 -231.5t-240.5 -84.5t-240 84t-88 232zM1020 285q0 -74 41 -119t115 -45t115.5 45t41.5 119v28q0 76 -42 121t-115 45q-74 0 -115 -45t-41 -121v-28z" />
<glyph unicode="&#x26;" horiz-adv-x="1224" d="M74 383q0 133 71.5 216t171.5 114v26q-98 31 -165.5 107t-67.5 205q0 125 55.5 210t150.5 129t214 44h241v-177h-206q-102 0 -172 -55t-70 -168q0 -117 71.5 -169t170.5 -52h239v203h211v-203h195v-178h-195v-635h-493q-123 0 -218.5 45t-149.5 131t-54 207zM285 406 q0 -117 73.5 -172.5t171.5 -55.5h248v457h-248q-102 0 -173.5 -56.5t-71.5 -172.5z" />
<glyph unicode="'" horiz-adv-x="559" d="M115 1302q0 72 47 116t119 44q70 0 116.5 -46t46.5 -120v-213q0 -203 -202 -203h-84v121h69q84 0 84 84v66h-30q-72 0 -119 43t-47 108z" />
<glyph unicode="(" horiz-adv-x="796" d="M113 215v614q0 369 172 538t493 169v-180q-236 -2 -348.5 -132t-112.5 -403v-598q0 -272 113 -402t348 -132v-181q-322 0 -493.5 169t-171.5 538z" />
<glyph unicode=")" horiz-adv-x="784" d="M8 -311q233 2 347 132t114 402v598q0 272 -113.5 402.5t-347.5 132.5v180q319 0 491.5 -169t172.5 -538v-614q0 -369 -172.5 -538t-491.5 -169v181z" />
<glyph unicode="*" horiz-adv-x="1085" d="M92 918v131h168l146 -21l10 23l-119 86l-119 118l92 93l119 -117l86 -119l25 10l-23 146v166h131v-166l-22 -146l24 -10l86 119l119 117l92 -93l-116 -118l-119 -86l10 -23l143 21h168v-131h-168l-143 22l-10 -25l119 -86l116 -118l-92 -93l-119 119l-86 119l-24 -10 l22 -146v-165h-131v165l23 146l-25 10l-86 -119l-119 -119l-92 93l119 118l119 86l-10 25l-146 -22h-168z" />
<glyph unicode="+" d="M207 621v192h330v332h198v-332h328v-192h-328v-332h-198v332h-330z" />
<glyph unicode="," horiz-adv-x="559" d="M115 143q0 72 47 116t119 44q70 0 116.5 -46t46.5 -120v-213q0 -203 -202 -203h-84v121h69q84 0 84 84v66h-30q-72 0 -119 43t-47 108z" />
<glyph unicode="-" horiz-adv-x="907" d="M152 428v193h606v-193h-606z" />
<glyph unicode="." horiz-adv-x="565" d="M115 139q0 74 48 120t120 46t120 -46t48 -120t-48 -121t-120 -47t-120 47.5t-48 120.5z" />
<glyph unicode="/" horiz-adv-x="776" d="M-16 -410l602 1844h211l-602 -1844h-211z" />
<glyph unicode="0" horiz-adv-x="1320" d="M113 543v348q0 281 148.5 426t397.5 145q250 0 399.5 -145.5t149.5 -425.5v-348q0 -287 -149.5 -429.5t-399.5 -142.5t-398 142.5t-148 429.5zM328 535q0 -180 82.5 -275.5t248.5 -95.5q170 0 252 97t82 274v368q0 176 -88 271.5t-246 95.5q-160 0 -245.5 -96.5 t-85.5 -270.5v-368z" />
<glyph unicode="1" horiz-adv-x="890" d="M31 799l317 635h393v-1434h-215v1282h-32l-236 -483h-227z" />
<glyph unicode="2" horiz-adv-x="1224" d="M98 0v162q0 150 50.5 246t146.5 156.5t231 101.5l125 39q125 39 198 109.5t73 191.5v8q0 117 -82 186.5t-215 69.5q-137 0 -222.5 -74t-85.5 -217v-33h-213v31q0 154 69 262.5t186.5 165.5t265.5 57q147 0 263 -55t182.5 -155.5t66.5 -233.5v-21q0 -139 -55.5 -231 t-153 -152.5t-223.5 -99.5l-121 -37q-143 -45 -206 -99t-63 -165v-20h809v-193h-1026z" />
<glyph unicode="3" horiz-adv-x="1241" d="M82 453v36h215v-32q0 -135 89 -214t237 -79q145 0 228 73.5t83 186.5v18q0 119 -85 172.5t-206 53.5h-260v247l504 297v29h-770v193h1003v-291l-481 -287v-29h88q109 0 205 -41t156.5 -124.5t60.5 -212.5v-25q0 -137 -65.5 -238.5t-184 -158t-276.5 -56.5t-281 57.5 t-191.5 166t-68.5 258.5z" />
<glyph unicode="4" horiz-adv-x="1290" d="M59 293v250l549 891h391v-951h242v-190h-242v-293h-215v293h-725zM268 483h516v815h-32l-484 -786v-29z" />
<glyph unicode="5" horiz-adv-x="1226" d="M90 451v22h219v-20q0 -131 81 -210t226 -79q147 0 230.5 82t83.5 221v18q0 133 -81 213t-206 80q-106 0 -158.5 -45t-76.5 -88h-273v789h961v-195h-746v-422h33q31 49 102.5 94t202.5 45q127 0 230.5 -55t165 -159.5t61.5 -254.5v-22q0 -150 -63.5 -260.5t-181.5 -172 t-282 -61.5q-162 0 -280.5 59.5t-183 168t-64.5 252.5z" />
<glyph unicode="6" horiz-adv-x="1259" d="M113 453v495q0 168 66.5 283t187 173t280.5 58q238 0 374 -120.5t136 -319.5h-217q0 106 -71.5 177t-221.5 71q-154 0 -236.5 -82t-82.5 -223v-172h32q35 51 114 95t224 44q127 0 233.5 -55.5t171 -159t64.5 -246.5v-25q0 -143 -67.5 -249.5t-187 -166t-275.5 -59.5 t-274.5 60.5t-184 168t-65.5 253.5zM328 451q0 -133 85 -210t226 -77q143 0 228 76.5t85 210.5v16q0 133 -86 212t-227 79q-139 0 -225 -79t-86 -212v-16z" />
<glyph unicode="7" horiz-adv-x="1144" d="M59 1241v193h1028v-254l-538 -967q-25 -45 -35 -80t-10 -90v-43h-215v51q0 76 12 129t51 123l514 911v27h-807z" />
<glyph unicode="8" horiz-adv-x="1251" d="M76 381v22q0 102 40 169t97 105t111 50v33q-53 14 -104.5 52t-85.5 99.5t-34 151.5v22q0 115 66.5 199t184.5 131t276 47q156 0 274.5 -47t185 -131t66.5 -199v-22q0 -90 -35 -151.5t-86 -99.5t-102 -52v-33q51 -12 108.5 -50t97.5 -104.5t40 -169.5v-22q0 -127 -69 -218 t-192.5 -141.5t-287.5 -50.5q-166 0 -290 50.5t-192.5 141.5t-68.5 218zM291 393q0 -109 89 -169t247 -60q156 0 245 60.5t89 168.5v17q0 111 -88.5 171t-245.5 60q-160 0 -248 -60.5t-88 -170.5v-17zM313 1044q0 -100 83.5 -155t230.5 -55q145 0 228 55t83 155v17 q0 100 -84 154.5t-227 54.5q-145 0 -229.5 -54.5t-84.5 -154.5v-17z" />
<glyph unicode="9" horiz-adv-x="1259" d="M94 963v24q0 143 66.5 249.5t186.5 166t276 59.5q158 0 275.5 -60.5t183 -168t65.5 -252.5v-496q0 -168 -66.5 -282.5t-186.5 -173t-280 -58.5q-240 0 -376 121t-136 320h220q0 -106 70.5 -177t221.5 -71q152 0 235 82t83 223v172h-31q-37 -51 -115.5 -95t-224.5 -44 q-127 0 -233.5 55t-170 158.5t-63.5 247.5zM309 967q0 -133 85.5 -212t226.5 -79t226 79t85 212v16q0 133 -85 210t-226 77t-226.5 -77t-85.5 -210v-16z" />
<glyph unicode=":" horiz-adv-x="565" d="M115 139q0 74 48 120t120 46t120 -46t48 -120t-48 -121t-120 -47t-120 47.5t-48 120.5zM115 870q0 74 48 120t120 46t120 -46t48 -120t-48 -121t-120 -47t-120 47.5t-48 120.5z" />
<glyph unicode=";" horiz-adv-x="565" d="M115 870q0 74 48 120t120 46t120 -46t48 -120t-48 -121t-120 -47t-120 47.5t-48 120.5zM117 143q0 72 47 116t119 44q70 0 116.5 -46t46.5 -120v-213q0 -203 -202 -203h-84v121h69q84 0 84 84v66h-30q-72 0 -119 43t-47 108z" />
<glyph unicode="&#x3c;" d="M205 584v266l860 317v-209l-651 -225v-33l651 -223v-211z" />
<glyph unicode="=" d="M207 455v192h856v-192h-856zM207 786v193h856v-193h-856z" />
<glyph unicode="&#x3e;" d="M205 266v211l653 223v33l-653 225v209l860 -317v-266z" />
<glyph unicode="?" horiz-adv-x="1185" d="M78 961v57q0 139 68.5 238.5t185.5 152.5t264 53q145 0 258 -53t177.5 -145.5t64.5 -212.5q0 -119 -44 -198t-114 -128t-147 -84l-46 -20q-39 -16 -53 -42t-14 -73v-78h-221v86q0 98 37.5 159.5t130.5 104.5l45 21q100 43 154.5 98t54.5 154q0 106 -80 164.5t-203 58.5 t-212 -63.5t-89 -190.5v-59h-217zM406 139q0 74 47 120t118 46q72 0 120 -46t48 -120t-48 -121t-120 -47t-118.5 47.5t-46.5 120.5z" />
<glyph unicode="@" horiz-adv-x="2088" d="M147 500v47q0 283 111 485.5t314.5 311t478.5 108.5h43q256 0 448.5 -105.5t300 -297t107.5 -451.5v-113q0 -238 -91.5 -361.5t-265.5 -123.5h-94q-90 0 -137 38t-47 103v13h-33q-27 -66 -89.5 -119t-188.5 -53q-125 0 -220.5 67.5t-147.5 181t-52 256.5v35q0 143 51 257 t143 180.5t211 66.5q127 0 187.5 -47t91.5 -105h32v134h205v-760q0 -61 58 -62h16q88 0 126 73t38 230v105q0 315 -168 491.5t-485 176.5h-33q-215 0 -373 -82t-244 -243t-86 -398v-33q0 -236 90.5 -397.5t256 -244.5t393.5 -83h413v-191h-426q-285 0 -494.5 108.5 t-324.5 312.5t-115 489zM793 492q0 -150 69 -238t182 -88q115 0 185.5 87t70.5 241v22q0 152 -70.5 240t-185.5 88q-113 0 -182 -88t-69 -240v-24z" />
<glyph unicode="A" horiz-adv-x="1294" d="M45 0l408 1434h389l407 -1434h-227l-94 338h-561l-95 -338h-227zM422 543h450l-208 753h-33z" />
<glyph unicode="B" horiz-adv-x="1357" d="M96 0v197h195v1040h-195v197h727q129 0 225.5 -44t150.5 -126t54 -191v-20q0 -98 -36.5 -162t-90 -99.5t-98.5 -48.5v-32q47 -12 101.5 -47t92.5 -99.5t38 -167.5v-20q0 -119 -55.5 -203t-154 -129t-223.5 -45h-731zM512 201h289q111 0 174 53t63 147v19 q0 94 -62.5 147.5t-174.5 53.5h-289v-420zM512 823h289q104 0 167.5 52.5t63.5 142.5v20q0 90 -62.5 142.5t-168.5 52.5h-289v-410z" />
<glyph unicode="C" horiz-adv-x="1316" d="M113 549v336q0 281 153.5 429t415.5 148q258 0 398.5 -143t140.5 -391v-10h-220v16q0 145 -78.5 237.5t-240.5 92.5q-164 0 -256 -99.5t-92 -275.5v-344q0 -176 92 -275.5t256 -99.5q162 0 240.5 92t78.5 238v35h220v-29q0 -248 -140.5 -391.5t-398.5 -143.5 q-262 0 -415.5 148.5t-153.5 429.5z" />
<glyph unicode="D" horiz-adv-x="1361" d="M96 0v197h195v1040h-195v197h574q285 0 438.5 -145.5t153.5 -438.5v-268q0 -293 -154 -437.5t-438 -144.5h-574zM512 201h160q369 0 368 374v283q0 373 -368 373h-160v-1030z" />
<glyph unicode="E" horiz-adv-x="1144" d="M150 0v1434h903v-201h-682v-412h624v-200h-624v-420h692v-201h-913z" />
<glyph unicode="F" horiz-adv-x="1099" d="M150 0v1434h884v-201h-663v-414h610v-201h-610v-618h-221z" />
<glyph unicode="G" horiz-adv-x="1353" d="M113 549v336q0 281 153.5 429t415.5 148q258 0 397.5 -140t139.5 -376v-10h-220v16q0 133 -77.5 222.5t-239.5 89.5q-164 0 -256 -99.5t-92 -275.5v-344q0 -176 92 -276.5t258 -100.5q164 0 239.5 89t75.5 235v26h-385v191h605v-709h-205v145h-33q-18 -39 -54 -79.5 t-102.5 -67.5t-177.5 -27q-154 0 -274.5 66.5t-190 195.5t-69.5 316z" />
<glyph unicode="H" horiz-adv-x="1343" d="M150 0v1434h221v-615h602v615h221v-1434h-221v618h-602v-618h-221z" />
<glyph unicode="I" horiz-adv-x="520" d="M150 0v1434h221v-1434h-221z" />
<glyph unicode="J" horiz-adv-x="1232" d="M74 430v123h221v-123q0 -115 62.5 -183.5t181.5 -68.5q115 0 170 67.5t55 184.5v803h-250v201h631v-201h-160v-803q0 -223 -115.5 -341t-326.5 -118q-215 0 -342 120t-127 339z" />
<glyph unicode="K" horiz-adv-x="1265" d="M150 0v1434h221v-596h32l535 596h289l-647 -707l669 -727h-297l-549 608h-32v-608h-221z" />
<glyph unicode="L" horiz-adv-x="1114" d="M150 0v1434h221v-1233h690v-201h-911z" />
<glyph unicode="M" horiz-adv-x="1789" d="M150 0v1434h415l314 -1287h32l314 1287h415v-1434h-215v1278h-32l-312 -1278h-372l-312 1278h-32v-1278h-215z" />
<glyph unicode="N" horiz-adv-x="1366" d="M150 0v1434h425l390 -1287h32v1287h220v-1434h-426l-390 1288h-32v-1288h-219z" />
<glyph unicode="O" horiz-adv-x="1378" d="M113 549v336q0 281 155.5 429t419.5 148t421 -148.5t157 -428.5v-336q0 -281 -157 -429.5t-421 -148.5t-419.5 148.5t-155.5 429.5zM334 541q0 -172 93 -271.5t261 -99.5t261 99.5t93 271.5v352q0 172 -93 271.5t-261 99.5t-261 -99.5t-93 -271.5v-352z" />
<glyph unicode="P" horiz-adv-x="1234" d="M150 0v1434h569q131 0 234.5 -52.5t162 -147.5t58.5 -228v-27q0 -133 -60.5 -229.5t-163 -147.5t-231.5 -51h-348v-551h-221zM371 752h325q115 0 185.5 60t70.5 169v20q0 109 -69.5 170.5t-186.5 61.5h-325v-481z" />
<glyph unicode="Q" horiz-adv-x="1378" d="M113 549v336q0 281 155.5 429t419.5 148t421 -148.5t157 -428.5v-336q0 -252 -126 -397.5t-343 -174.5v-90q0 -61 57 -61h127v-176h-205q-88 0 -142 54t-54 146v127q-215 29 -341 175.5t-126 396.5zM334 541q0 -172 93 -271.5t261 -99.5t261 99.5t93 271.5v352 q0 172 -93 271.5t-261 99.5t-261 -99.5t-93 -271.5v-352z" />
<glyph unicode="R" horiz-adv-x="1294" d="M150 0v1434h602q133 0 233 -47.5t157.5 -132.5t57.5 -203v-23q0 -135 -64.5 -216t-156.5 -114v-32q78 -4 125 -53.5t47 -137.5v-475h-221v444q0 55 -30 88t-93 33h-436v-565h-221zM371 766h356q119 0 184.5 59.5t65.5 165.5v17q0 104 -64.5 164.5t-185.5 60.5h-356v-467z " />
<glyph unicode="S" horiz-adv-x="1249" d="M84 469v51h219v-51q0 -154 91 -228.5t243 -74.5t230.5 64.5t78.5 166.5t-81 148.5t-222 79.5l-76 18q-139 31 -239.5 80t-155.5 129t-55 205q0 190 136 297.5t359 107.5q150 0 267.5 -51t185.5 -151.5t68 -251.5v-74h-220v74q0 139 -82.5 199.5t-218.5 60.5 q-133 0 -204.5 -54.5t-71.5 -150.5q0 -98 70.5 -145.5t207.5 -77.5l76 -19q137 -31 244.5 -79t169 -130t61.5 -211t-64.5 -225t-183 -150.5t-280.5 -54.5t-287 57.5t-195.5 169t-70.5 271.5z" />
<glyph unicode="T" horiz-adv-x="1204" d="M51 1233v201h1102v-201h-440v-1233h-221v1233h-441z" />
<glyph unicode="U" horiz-adv-x="1370" d="M139 492v942h223v-949q0 -152 84 -233.5t240 -81.5t240 82t84 233v949h221v-942q0 -248 -146.5 -384.5t-398.5 -136.5q-254 0 -400.5 136.5t-146.5 384.5z" />
<glyph unicode="V" horiz-adv-x="1267" d="M45 1434h227l349 -1295h26l346 1295h230l-398 -1434h-383z" />
<glyph unicode="W" horiz-adv-x="1816" d="M70 1434h219l172 -1284h33l221 1284h387l221 -1284h33l170 1284h221l-211 -1434h-387l-225 1303h-33l-223 -1303h-389z" />
<glyph unicode="X" horiz-adv-x="1312" d="M55 0l441 723l-435 711h254l324 -553h33l325 553h254l-434 -711l440 -723h-253l-332 567h-33l-330 -567h-254z" />
<glyph unicode="Y" horiz-adv-x="1263" d="M23 1434h249l344 -650h31l344 650h250l-498 -914v-520h-223v520z" />
<glyph unicode="Z" horiz-adv-x="1181" d="M98 0v287l754 919v29h-731v199h958v-287l-753 -920v-28h761v-199h-989z" />
<glyph unicode="[" horiz-adv-x="710" d="M156 -307v1659q0 80 52 132t132 52h334v-180h-258q-55 0 -56 -62v-1544q0 -61 56 -61h258v-181h-334q-80 0 -132 52.5t-52 132.5z" />
<glyph unicode="\" horiz-adv-x="776" d="M-20 1434h213l602 -1844h-213z" />
<glyph unicode="]" horiz-adv-x="710" d="M35 -311h260q55 0 55 61v1544q0 61 -55 62h-260v180h334q82 0 134 -52t52 -132v-1659q0 -80 -52 -132.5t-134 -52.5h-334v181z" />
<glyph unicode="^" d="M147 868l328 566h320l327 -566h-239l-232 428h-33l-229 -428h-242z" />
<glyph unicode="_" d="M145 -100h979v-191h-979v191z" />
<glyph unicode="`" horiz-adv-x="589" d="M96 1434h244l154 -291h-191z" />
<glyph unicode="a" horiz-adv-x="1181" d="M90 291q0 154 109.5 232.5t275.5 78.5h307v66q0 86 -53 140t-164 54q-109 0 -166 -51t-75 -133l-197 63q25 80 79 147.5t143 108.5t218 41q197 0 309.5 -100t112.5 -285v-415q0 -61 58 -62h86v-176h-158q-70 0 -115 37t-45 100v6h-33q-16 -33 -49 -72.5t-96.5 -69.5 t-167.5 -30q-109 0 -194 37t-135 108.5t-50 174.5zM301 297q0 -70 53.5 -111t145.5 -41q125 0 203.5 73t78.5 200v20h-295q-84 0 -135 -35.5t-51 -105.5z" />
<glyph unicode="b" horiz-adv-x="1312" d="M156 0v1434h211v-562h32q35 61 114 113.5t226 52.5q127 0 232.5 -62.5t170 -178t64.5 -277.5v-31q0 -164 -64.5 -279.5t-171 -177t-231.5 -61.5q-147 0 -226 53.5t-118 118.5h-33v-143h-206zM365 496q0 -164 89 -252t224 -88q137 0 226 88t89 252v18q0 162 -89 250 t-226 88t-225 -88t-88 -250v-18z" />
<glyph unicode="c" horiz-adv-x="1212" d="M106 492v26q0 162 69 278.5t186.5 179t263.5 62.5q145 0 248.5 -53t164 -141t80.5 -195l-205 -43q-14 100 -82.5 172t-201.5 72q-131 0 -221.5 -88t-90.5 -248v-18q0 -160 90.5 -248t221.5 -88q133 0 202.5 68.5t88.5 174.5l204 -47q-25 -104 -87 -192t-164.5 -140.5 t-247.5 -52.5t-263 61.5t-187 178.5t-69 281z" />
<glyph unicode="d" horiz-adv-x="1312" d="M106 489v31q0 162 63.5 277.5t170 178t233.5 62.5q147 0 226.5 -52t113.5 -114h33v562h211v-1434h-207v143h-32q-39 -66 -118.5 -119t-226.5 -53q-127 0 -232 61.5t-170 177.5t-65 279zM319 496q0 -164 89.5 -252t224.5 -88q137 0 226 88t89 252v18q0 162 -89 250 t-226 88t-225.5 -88t-88.5 -250v-18z" />
<glyph unicode="e" horiz-adv-x="1196" d="M106 492v24q0 158 65 274.5t177.5 182t261.5 65.5q145 0 255 -64.5t171.5 -179t61.5 -268.5v-80h-776q4 -133 89 -211.5t212 -78.5q119 0 179 53t93 123l176 -90q-31 -57 -84 -121t-143.5 -107t-225.5 -43q-154 0 -268 64.5t-179 181.5t-65 275zM324 608h561 q-10 113 -84 178.5t-193 65.5t-193.5 -65.5t-90.5 -178.5z" />
<glyph unicode="f" horiz-adv-x="899" d="M55 831v179h283v221q0 92 54 147.5t149 55.5h260v-177h-193q-59 0 -59 -61v-186h291v-179h-291v-831h-211v831h-283z" />
<glyph unicode="g" horiz-adv-x="1310" d="M106 500v30q0 158 63.5 271.5t170 175t235.5 61.5q147 0 226.5 -55t116.5 -119h32v146h205v-1217q0 -92 -54 -147.5t-149 -55.5h-680v185h615q59 0 59 61v322h-33q-35 -59 -111.5 -111.5t-226.5 -52.5q-127 0 -233 60.5t-171 174t-65 271.5zM319 506q0 -156 89.5 -242 t224.5 -86q137 0 226 86t89 242v18q0 156 -89 242t-226 86t-225.5 -86t-88.5 -242v-18z" />
<glyph unicode="h" horiz-adv-x="1259" d="M156 0v1434h211v-568h32q29 57 100.5 108.5t217.5 51.5q115 0 204 -51t140 -145.5t51 -223.5v-606h-211v590q0 131 -65.5 193.5t-180.5 62.5q-131 0 -209.5 -86t-78.5 -250v-510h-211z" />
<glyph unicode="i" horiz-adv-x="524" d="M116 1290q0 63 42 103.5t104 40.5q61 0 103 -40t42 -104q0 -63 -42 -103t-103 -40t-103.5 40t-42.5 103zM156 0v1010h211v-1010h-211z" />
<glyph unicode="j" horiz-adv-x="528" d="M-37 -227h139q57 0 58 61v1176h211v-1217q0 -92 -54.5 -147.5t-148.5 -55.5h-205v183zM121 1290q0 63 42 103.5t104 40.5q61 0 103 -40t42 -104q0 -63 -42 -103t-103 -40t-103.5 40t-42.5 103z" />
<glyph unicode="k" horiz-adv-x="1128" d="M156 0v1434h211v-818h32l398 394h280l-510 -490l527 -520h-277l-418 420h-32v-420h-211z" />
<glyph unicode="l" horiz-adv-x="524" d="M156 0v1434h211v-1434h-211z" />
<glyph unicode="m" horiz-adv-x="1755" d="M156 0v1010h206v-119h33q29 53 91.5 94t172.5 41q113 0 181.5 -47t103.5 -117h33q33 70 100.5 117t190.5 47q145 0 242.5 -91t97.5 -263v-672h-211v657q0 90 -50.5 140.5t-142.5 50.5q-98 0 -157.5 -63.5t-59.5 -182.5v-602h-211v657q0 90 -50 140.5t-142 50.5 q-98 0 -157.5 -63.5t-59.5 -182.5v-602h-211z" />
<glyph unicode="n" horiz-adv-x="1259" d="M156 0v1010h206v-152h33q29 61 102.5 114.5t219.5 53.5q115 0 204 -51t140 -145.5t51 -223.5v-606h-211v590q0 131 -65.5 193.5t-180.5 62.5q-131 0 -209.5 -86t-78.5 -250v-510h-211z" />
<glyph unicode="o" horiz-adv-x="1259" d="M106 489v31q0 160 68 275.5t185.5 179t269.5 63.5t270.5 -63.5t186 -179t67.5 -275.5v-31q0 -160 -67.5 -276.5t-186 -179t-270.5 -62.5t-269.5 62.5t-185.5 179.5t-68 276zM317 496q0 -158 87.5 -247t224.5 -89q139 0 226 89t87 247v18q0 158 -87 247t-226 89 t-225.5 -89t-86.5 -247v-18z" />
<glyph unicode="p" horiz-adv-x="1312" d="M156 -410v1420h206v-146h33q39 68 118 121t226 53q125 0 231.5 -61.5t171 -178t64.5 -278.5v-31q0 -164 -64.5 -279.5t-170 -177t-232.5 -61.5q-147 0 -226 52.5t-114 113.5h-32v-547h-211zM365 496q0 -164 88 -252t225 -88t226 88t89 252v18q0 162 -89 250t-226 88 q-135 0 -224 -88t-89 -250v-18z" />
<glyph unicode="q" horiz-adv-x="1312" d="M106 489v31q0 162 65 278.5t170 178t232 61.5q147 0 226.5 -53t118.5 -121h32v146h207v-1420h-211v547h-33q-35 -61 -113.5 -113.5t-226.5 -52.5q-127 0 -233.5 61.5t-170 177.5t-63.5 279zM319 496q0 -164 88.5 -252t225.5 -88t226 88t89 252v18q0 162 -89 250t-226 88 q-135 0 -224.5 -88t-89.5 -250v-18z" />
<glyph unicode="r" horiz-adv-x="792" d="M156 0v1010h206v-119h33q25 63 78 93t135 30h121v-191h-129q-104 0 -168.5 -56t-64.5 -173v-594h-211z" />
<glyph unicode="s" horiz-adv-x="1075" d="M94 317l197 48q23 -127 99.5 -175.5t178.5 -48.5q100 0 154.5 38t54.5 102q0 61 -51 89.5t-149 47.5l-72 12q-102 18 -186 53t-133.5 96.5t-49.5 157.5q0 143 106.5 222t282.5 79q170 0 279.5 -76.5t142.5 -207.5l-196 -56q-18 92 -78 130t-148 38q-86 0 -135 -31.5 t-49 -89.5q0 -61 48 -89.5t130 -43.5l72 -12q109 -18 198 -52t142 -94.5t53 -162.5q0 -154 -114 -237t-302 -83q-195 0 -321.5 86t-153.5 260z" />
<glyph unicode="t" horiz-adv-x="937" d="M55 831v179h279v333h211v-333h301v-179h-301v-591q0 -61 57 -62h211v-178h-278q-92 0 -146.5 55.5t-54.5 147.5v628h-279z" />
<glyph unicode="u" horiz-adv-x="1257" d="M145 403v607h211v-592q0 -131 65.5 -193.5t182.5 -62.5q129 0 208 87t79 251v510h211v-1010h-207v152h-33q-29 -61 -102.5 -115.5t-216.5 -54.5q-115 0 -205 51t-141.5 145t-51.5 225z" />
<glyph unicode="v" horiz-adv-x="1114" d="M49 1010h223l269 -854h32l269 854h223l-340 -1010h-336z" />
<glyph unicode="w" horiz-adv-x="1622" d="M94 1010h211l127 -869h33l176 869h342l174 -869h33l127 869h211l-172 -1010h-352l-177 866h-32l-174 -866h-355z" />
<glyph unicode="x" horiz-adv-x="1214" d="M70 0l385 510l-377 500h248l264 -363h33l264 363h250l-379 -500l385 -510h-250l-270 371h-33l-268 -371h-252z" />
<glyph unicode="y" horiz-adv-x="1257" d="M145 401v609h211v-592q0 -131 65.5 -193.5t182.5 -62.5q129 0 208 87t79 249v512h211v-1217q0 -92 -54.5 -147.5t-148.5 -55.5h-627v185h564q57 0 57 61v311h-33q-29 -59 -101.5 -112t-215.5 -53q-115 0 -205 51t-141.5 145t-51.5 223z" />
<glyph unicode="z" horiz-adv-x="1062" d="M115 0v258l596 545v28h-576v179h805v-260l-598 -545v-27h614v-178h-841z" />
<glyph unicode="{" horiz-adv-x="919" d="M76 422v201h207q84 0 84 82v647q0 80 51 132t133 52h334v-180h-260q-55 0 -56 -62v-592q0 -72 -41 -117.5t-114 -45.5h-23v-33h23q74 0 114.5 -46t40.5 -118v-592q0 -61 56 -61h260v-181h-334q-82 0 -133 52.5t-51 132.5v647q0 82 -84 82h-207z" />
<glyph unicode="|" horiz-adv-x="509" d="M150 -504v2155h210v-2155h-210z" />
<glyph unicode="}" horiz-adv-x="919" d="M35 -311h260q55 0 55 61v592q0 72 42 118t114 46h24v33h-24q-72 0 -114 46t-42 117v592q0 61 -55 62h-260v180h334q82 0 134 -52t52 -132v-647q0 -82 82 -82h207v-201h-207q-82 0 -82 -82v-647q0 -80 -52 -132.5t-134 -52.5h-334v181z" />
<glyph unicode="~" d="M129 672l219 168q39 31 81 53t97 22q59 0 96 -27.5t66 -68.5q27 -39 42 -55t42 -16q23 0 42.5 11t41.5 29l164 127l119 -153l-217 -168q-39 -31 -81 -52.5t-98 -21.5q-61 0 -98 26.5t-65 67.5q-25 39 -40.5 55.5t-43.5 16.5q-23 0 -42.5 -11t-41.5 -30l-164 -127z" />
<glyph unicode="&#xa1;" horiz-adv-x="565" d="M115 870q0 74 48 121t120 47t120 -47t48 -121t-48.5 -121t-119.5 -47q-72 0 -120 47.5t-48 120.5zM174 -410v992h215v-992h-215z" />
<glyph unicode="&#xa2;" horiz-adv-x="1224" d="M113 492v26q0 145 55 254t151.5 174.5t221.5 83.5v223h190v-223q170 -27 268.5 -133t122.5 -248l-204 -43q-10 80 -56.5 143.5t-130.5 88.5v-668q86 25 132 86t63 147l202 -47q-31 -139 -129 -244.5t-268 -131.5v-218h-190v215q-125 18 -221.5 85t-151.5 175.5t-55 254.5 zM324 496q0 -131 60 -214t157 -110v664q-96 -27 -156.5 -110t-60.5 -212v-18z" />
<glyph unicode="&#xa3;" horiz-adv-x="1296" d="M115 0v193h151v415h-143v172h143v236q0 215 121 330.5t330 115.5t330.5 -115.5t121.5 -330.5v-123h-213v127q0 117 -63.5 183.5t-175.5 66.5q-113 0 -176.5 -66.5t-63.5 -183.5v-240h230v-172h-230v-415h701v-193h-1063z" />
<glyph unicode="&#xa4;" d="M90 305l123 123q-90 125 -90 289t90 289l-123 122l133 134l123 -123q61 41 134 65.5t155 24.5q80 0 153.5 -24.5t135.5 -65.5l123 123l133 -134l-123 -122q41 -61 65.5 -135t24.5 -154q0 -82 -24.5 -155t-65.5 -134l123 -123l-133 -133l-123 123q-125 -90 -289 -90 t-289 90l-123 -123zM309 717q0 -94 43 -168t117 -117t166 -43t165.5 43t117 117t43.5 168t-43.5 167.5t-117 118t-165.5 44.5t-166 -43t-117 -118t-43 -169z" />
<glyph unicode="&#xa5;" d="M14 1434h254l350 -648h33l350 648h254l-393 -709h213v-174h-330v-115h330v-174h-330v-262h-221v262h-329v174h329v115h-329v174h213z" />
<glyph unicode="&#xa6;" horiz-adv-x="509" d="M150 397h210v-901h-210v901zM150 750v901h210v-901h-210z" />
<glyph unicode="&#xa7;" horiz-adv-x="995" d="M74 377v35h188v-29q0 -109 61.5 -173.5t184.5 -64.5q98 0 149.5 43t51.5 119q0 74 -50.5 113t-173.5 59q-178 31 -271 108t-93 216q0 96 49 168q-49 70 -49 166v10q0 98 48 168.5t132 108.5t188 38q174 0 285 -89t111 -247v-55h-187v39q0 80 -54 129t-150 49 q-80 0 -131.5 -35.5t-51.5 -105.5q0 -82 66.5 -117t171.5 -55q178 -35 265 -109.5t87 -206.5q0 -102 -45 -174q43 -70 43 -157v-15q0 -152 -100.5 -247t-290.5 -95q-201 0 -317.5 111t-116.5 295zM311 803q0 -70 61.5 -102.5t174.5 -53.5q92 -16 149 -41q10 18 11 45 q0 63 -49.5 99t-170.5 57q-45 8 -86 21.5t-75 27.5q-14 -23 -15 -53z" />
<glyph unicode="&#xa8;" horiz-adv-x="884" d="M96 1284q0 66 41 104.5t105 38.5q61 0 102 -38.5t41 -104.5t-41 -104.5t-102 -38.5q-63 0 -104.5 39t-41.5 104zM500 1284q0 66 41 104.5t102 38.5q63 0 104 -38.5t41 -104.5t-41 -104.5t-104 -38.5q-61 0 -102 39t-41 104z" />
<glyph unicode="&#xa9;" horiz-adv-x="1458" d="M113 598v238q0 305 162.5 463.5t437.5 158.5h35q274 0 436 -158.5t162 -463.5v-238q0 -305 -162 -464t-436 -159h-35q-274 0 -437 159t-163 464zM289 598q0 -229 111.5 -343t316.5 -114h26q203 0 315.5 114t112.5 343v240q0 227 -112.5 340.5t-315.5 113.5h-26 q-205 0 -316.5 -113.5t-111.5 -340.5v-240zM442 608v217q0 154 81 237t212 83q143 0 215 -82t72 -211v-35h-168v47q0 53 -27.5 87t-89.5 34q-57 0 -91 -33.5t-34 -95.5v-278q0 -59 35 -92t90 -33q117 0 117 122v43h168v-32q0 -131 -71 -211t-214 -80q-135 0 -215 80t-80 233 z" />
<glyph unicode="&#xaa;" horiz-adv-x="858" d="M76 924q0 109 76.5 164t193.5 55h205v39q0 61 -34 100t-109 39q-76 0 -115 -36t-49 -85l-146 45q25 84 100.5 145.5t213.5 61.5q135 0 217 -70.5t82 -207.5v-285q0 -45 39 -45h67v-127h-117q-53 0 -84.5 25.5t-33.5 70.5h-25q-14 -35 -63.5 -76t-153.5 -41 q-113 0 -188.5 57.5t-75.5 170.5zM233 928q0 -47 36.5 -74t97.5 -27q86 0 135 43t49 131v23h-193q-55 0 -90 -25.5t-35 -70.5z" />
<glyph unicode="&#xab;" horiz-adv-x="1437" d="M106 391v234l596 362h13v-227l-412 -238v-30l412 -238v-227h-13zM688 391v234l596 362h12v-227l-411 -238v-30l411 -238v-227h-12z" />
<glyph unicode="&#xac;" d="M207 621v192h856v-428h-186v236h-670z" />
<glyph unicode="&#xad;" horiz-adv-x="907" d="M152 428v193h606v-193h-606z" />
<glyph unicode="&#xae;" horiz-adv-x="1071" d="M106 1036q0 125 56.5 221.5t154 150.5t220.5 54t220 -54t153.5 -150.5t56.5 -221.5t-56.5 -221t-153.5 -150.5t-220 -54.5t-220.5 54.5t-154 150.5t-56.5 221zM193 1036q0 -156 94 -249t250 -93q154 0 248 93.5t94 248.5q0 156 -94.5 249t-247.5 93q-156 0 -250 -93 t-94 -249zM389 813v455h174q76 0 115 -37t39 -88q0 -84 -82 -115v-16q66 -6 65 -76v-123h-84v125q0 43 -43 43h-102v-168h-82zM471 1055h94q33 0 50.5 21.5t17.5 47.5q0 29 -17.5 48.5t-50.5 19.5h-94v-137z" />
<glyph unicode="&#xaf;" horiz-adv-x="843" d="M96 1167v170h652v-170h-652z" />
<glyph unicode="&#xb0;" horiz-adv-x="794" d="M70 1143q0 92 44 164.5t117.5 113.5t165.5 41t166 -41t118 -113.5t44 -164.5q0 -94 -44 -167t-118 -114t-166 -41t-165.5 41t-117.5 114t-44 167zM244 1143q0 -70 42.5 -113t110.5 -43t111 43t43 113q0 68 -43 110.5t-111 42.5t-110.5 -43t-42.5 -110z" />
<glyph unicode="&#xb1;" d="M207 0v193h856v-193h-856zM207 623v192h330v303h198v-303h328v-192h-328v-306h-198v306h-330z" />
<glyph unicode="&#xb2;" horiz-adv-x="747" d="M55 717v76q0 117 66.5 186.5t208.5 102.5q102 23 149 53.5t47 83.5q0 49 -40 78.5t-103 29.5q-66 0 -111 -32.5t-49 -104.5l-162 10q12 129 99.5 194.5t222.5 65.5q133 0 219 -66.5t86 -176.5q0 -111 -74.5 -166t-205.5 -84q-94 -20 -136.5 -46t-46.5 -71h459v-133h-629z " />
<glyph unicode="&#xb3;" horiz-adv-x="757" d="M49 944l158 17q6 -66 55 -102t115 -36q72 0 115 35t43 88q0 111 -162 111h-129v123l209 98v27h-390v129h629v-146l-239 -116v-25q115 -4 178 -53t63 -154q0 -111 -91 -180.5t-226 -69.5q-133 0 -226.5 66.5t-101.5 187.5z" />
<glyph unicode="&#xb4;" horiz-adv-x="589" d="M96 1133l154 292h244l-207 -292h-191z" />
<glyph unicode="&#xb5;" horiz-adv-x="1275" d="M150 -410v1420h210v-594q0 -125 64.5 -189.5t179.5 -64.5q127 0 202 84t75 241v523h211v-772q0 -61 57 -62h86v-176h-158q-72 0 -115.5 37t-46.5 106v19h-32q-31 -74 -102.5 -127t-194.5 -53q-76 0 -124 22.5t-77 50.5h-33v-465h-202z" />
<glyph unicode="&#xb6;" horiz-adv-x="1220" d="M45 1008v22q0 123 57.5 213t158.5 140.5t233 50.5h577v-1434h-186v1257h-170v-1257h-187v604h-43q-129 0 -228 50.5t-155.5 141.5t-56.5 212zM231 1012q0 -104 66.5 -169t181.5 -65h49v479h-49q-117 0 -182.5 -64.5t-65.5 -168.5v-12z" />
<glyph unicode="&#xb7;" horiz-adv-x="415" d="M41 588q0 74 48 120t120 46t120 -46t48 -120t-48 -121t-120 -47t-120 47.5t-48 120.5z" />
<glyph unicode="&#xb8;" horiz-adv-x="667" d="M96 -381l45 129q37 -16 79 -28.5t93 -12.5q43 0 71 15.5t28 48.5q0 61 -103 61h-76l17 211h149l-10 -129q78 0 130 -43t52 -123q0 -92 -75.5 -135t-173.5 -43q-63 0 -123 14.5t-103 34.5z" />
<glyph unicode="&#xb9;" horiz-adv-x="524" d="M35 1114l121 320h278v-717h-158v569h-26l-62 -172h-153z" />
<glyph unicode="&#xba;" horiz-adv-x="894" d="M74 1073q0 180 102.5 279.5t269.5 99.5q170 0 272.5 -99.5t102.5 -279.5q0 -178 -102.5 -277.5t-272.5 -99.5q-168 0 -270 99.5t-102 277.5zM233 1073q0 -117 58.5 -180.5t154.5 -63.5t154.5 63.5t58.5 180.5t-58 181.5t-155 64.5q-96 0 -154.5 -64.5t-58.5 -181.5z" />
<glyph unicode="&#xbb;" horiz-adv-x="1437" d="M141 27v227l412 238v30l-412 238v227h13l596 -362v-234l-596 -364h-13zM723 27v227l412 238v30l-412 238v227h12l596 -362v-234l-596 -364h-12z" />
<glyph unicode="&#xbc;" horiz-adv-x="1685" d="M35 1114l121 320h278v-717h-158v569h-26l-62 -172h-153zM150 74l1120 1382l117 -96l-1120 -1383zM922 158v155l311 404h279v-426h139v-133h-139v-158h-162v158h-428zM1100 291h250v309h-27l-223 -287v-22z" />
<glyph unicode="&#xbd;" horiz-adv-x="1687" d="M35 1114l121 320h278v-717h-158v569h-26l-62 -172h-153zM150 74l1120 1382l117 -96l-1120 -1383zM995 0v76q0 117 66.5 186.5t208.5 102.5q102 23 149 53.5t47 83.5q0 49 -40 78.5t-103 29.5q-66 0 -111 -32.5t-49 -104.5l-162 10q12 129 99.5 194.5t222.5 65.5 q133 0 219 -66.5t86 -176.5q0 -111 -74.5 -166t-205.5 -84q-94 -20 -136.5 -46t-46.5 -71h459v-133h-629z" />
<glyph unicode="&#xbe;" horiz-adv-x="1828" d="M49 944l158 17q6 -66 55 -102t115 -36q72 0 115 35t43 88q0 111 -162 111h-129v123l209 98v27h-390v129h629v-146l-239 -116v-25q115 -4 178 -53t63 -154q0 -111 -91 -180.5t-226 -69.5q-133 0 -226.5 66.5t-101.5 187.5zM293 74l1120 1382l117 -96l-1120 -1383z M1065 158v155l311 404h279v-426h139v-133h-139v-158h-162v158h-428zM1243 291h250v309h-27l-223 -287v-22z" />
<glyph unicode="&#xbf;" horiz-adv-x="1185" d="M90 -27q0 119 44 197t113.5 127t147.5 84l45 22q39 16 54.5 41t15.5 72v66h219v-74q0 -98 -38 -159.5t-130 -102.5l-45 -21q-98 -45 -153.5 -100t-55.5 -152q0 -109 80 -167t203 -58t212 63.5t89 192.5v57h217v-55q0 -141 -68.5 -240.5t-185.5 -152.5t-264 -53 q-145 0 -258 53t-177.5 146.5t-64.5 213.5zM446 870q0 74 47 121t119 47t120 -47t48 -121t-48 -121t-120 -47t-119 47.5t-47 120.5z" />
<glyph unicode="&#xc0;" horiz-adv-x="1294" d="M45 0l408 1434h389l407 -1434h-227l-94 338h-561l-95 -338h-227zM393 1812h250l141 -258h-194zM422 543h450l-208 753h-33z" />
<glyph unicode="&#xc1;" horiz-adv-x="1294" d="M45 0l408 1434h389l407 -1434h-227l-94 338h-561l-95 -338h-227zM422 543h450l-208 753h-33zM510 1552l142 258h249l-196 -258h-195z" />
<glyph unicode="&#xc2;" horiz-adv-x="1294" d="M45 0l408 1434h389l407 -1434h-227l-94 338h-561l-95 -338h-227zM272 1552l246 258h258l248 -258h-238l-123 144h-32l-123 -144h-236zM422 543h450l-208 753h-33z" />
<glyph unicode="&#xc3;" horiz-adv-x="1294" d="M45 0l408 1434h389l407 -1434h-227l-94 338h-561l-95 -338h-227zM291 1626l66 94q31 43 69.5 70t94.5 27q49 0 81.5 -17.5t69.5 -52.5q23 -23 43.5 -38t46.5 -15q29 0 47.5 17.5t34.5 37.5l45 63l113 -83l-66 -97q-31 -43 -69.5 -69.5t-93.5 -26.5q-47 0 -80 17.5 t-70 52.5q-25 23 -45.5 39t-46.5 16q-29 0 -47.5 -18.5t-34.5 -38.5l-43 -64zM422 543h450l-208 753h-33z" />
<glyph unicode="&#xc4;" horiz-adv-x="1294" d="M45 0l408 1434h389l407 -1434h-227l-94 338h-561l-95 -338h-227zM286 1694q0 63 41 103t105 40q61 0 102 -40t41 -103q0 -66 -41 -105t-102 -39q-63 0 -104.5 39t-41.5 105zM422 543h450l-208 753h-33zM716 1694q0 63 41 103t105 40q61 0 102 -40t41 -103q0 -66 -41 -105 t-102 -39q-63 0 -104.5 39t-41.5 105z" />
<glyph unicode="&#xc5;" horiz-adv-x="1294" d="M45 0l408 1434h389l407 -1434h-227l-94 338h-561l-95 -338h-227zM422 543h450l-208 753h-33zM440 1733q0 86 59.5 143t147.5 57t148.5 -56t60.5 -144q0 -92 -62.5 -146.5t-146.5 -54.5q-86 0 -146.5 56.5t-60.5 144.5zM573 1733q0 -33 20.5 -53.5t53.5 -20.5 q35 0 55.5 20.5t20.5 53.5t-20.5 53t-55.5 20q-33 0 -53.5 -20.5t-20.5 -52.5z" />
<glyph unicode="&#xc6;" horiz-adv-x="1691" d="M45 0l530 1434h1024v-201h-598v-412h541v-200h-541v-420h609v-201h-828v338h-385l-123 -338h-229zM467 543h315v770h-32z" />
<glyph unicode="&#xc7;" horiz-adv-x="1316" d="M113 549v336q0 281 153.5 429t415.5 148q258 0 398.5 -143t140.5 -391v-10h-220v16q0 145 -78.5 237.5t-240.5 92.5q-164 0 -256 -99.5t-92 -275.5v-344q0 -176 92 -275.5t256 -99.5q162 0 240.5 92t78.5 238v35h220v-29q0 -248 -140.5 -391.5t-398.5 -143.5 q-262 0 -415.5 148.5t-153.5 429.5zM456 -381l45 129q37 -16 79 -28.5t93 -12.5q43 0 71 15.5t28 48.5q0 61 -103 61h-76l17 211h149l-10 -129q78 0 130 -43t52 -123q0 -92 -75.5 -135t-173.5 -43q-63 0 -123 14.5t-103 34.5z" />
<glyph unicode="&#xc8;" horiz-adv-x="1144" d="M150 0v1434h903v-201h-682v-412h624v-200h-624v-420h692v-201h-913zM358 1812h250l141 -258h-194z" />
<glyph unicode="&#xc9;" horiz-adv-x="1144" d="M150 0v1434h903v-201h-682v-412h624v-200h-624v-420h692v-201h-913zM475 1552l142 258h249l-196 -258h-195z" />
<glyph unicode="&#xca;" horiz-adv-x="1144" d="M150 0v1434h903v-201h-682v-412h624v-200h-624v-420h692v-201h-913zM237 1552l246 258h258l248 -258h-238l-123 144h-32l-123 -144h-236z" />
<glyph unicode="&#xcb;" horiz-adv-x="1144" d="M150 0v1434h903v-201h-682v-412h624v-200h-624v-420h692v-201h-913zM252 1694q0 63 41 103t105 40q61 0 102 -40t41 -103q0 -66 -41 -105t-102 -39q-63 0 -104.5 39t-41.5 105zM682 1694q0 63 41 103t105 40q61 0 102 -40t41 -103q0 -66 -41 -105t-102 -39 q-63 0 -104.5 39t-41.5 105z" />
<glyph unicode="&#xcc;" horiz-adv-x="520" d="M6 1812h250l141 -258h-194zM150 0v1434h221v-1434h-221z" />
<glyph unicode="&#xcd;" horiz-adv-x="520" d="M123 1552l142 258h249l-196 -258h-195zM150 0v1434h221v-1434h-221z" />
<glyph unicode="&#xce;" horiz-adv-x="520" d="M-115 1552l246 258h258l248 -258h-238l-123 144h-32l-123 -144h-236zM150 0v1434h221v-1434h-221z" />
<glyph unicode="&#xcf;" horiz-adv-x="520" d="M-99 1694q0 63 41 103t105 40q61 0 102 -40t41 -103q0 -66 -41 -105t-102 -39q-63 0 -104.5 39t-41.5 105zM150 0v1434h221v-1434h-221zM331 1694q0 63 41 103t105 40q61 0 102 -40t41 -103q0 -66 -41 -105t-102 -39q-63 0 -104.5 39t-41.5 105z" />
<glyph unicode="&#xd0;" horiz-adv-x="1361" d="M96 0v197h195v1040h-195v197h574q285 0 438.5 -145.5t153.5 -438.5v-268q0 -293 -154 -437.5t-438 -144.5h-574zM96 637v156h660v-156h-660zM512 201h160q369 0 368 374v283q0 373 -368 373h-160v-1030z" />
<glyph unicode="&#xd1;" horiz-adv-x="1366" d="M150 0v1434h425l390 -1287h32v1287h220v-1434h-426l-390 1288h-32v-1288h-219zM329 1626l66 94q31 43 69.5 70t94.5 27q49 0 81.5 -17.5t69.5 -52.5q23 -23 43.5 -38t46.5 -15q29 0 47.5 17.5t34.5 37.5l45 63l113 -83l-66 -97q-31 -43 -69.5 -69.5t-93.5 -26.5 q-47 0 -80 17.5t-70 52.5q-25 23 -45.5 39t-46.5 16q-29 0 -47.5 -18.5t-34.5 -38.5l-43 -64z" />
<glyph unicode="&#xd2;" horiz-adv-x="1378" d="M113 549v336q0 281 155.5 429t419.5 148t421 -148.5t157 -428.5v-336q0 -281 -157 -429.5t-421 -148.5t-419.5 148.5t-155.5 429.5zM334 541q0 -172 93 -271.5t261 -99.5t261 99.5t93 271.5v352q0 172 -93 271.5t-261 99.5t-261 -99.5t-93 -271.5v-352zM436 1812h250 l141 -258h-194z" />
<glyph unicode="&#xd3;" horiz-adv-x="1378" d="M113 549v336q0 281 155.5 429t419.5 148t421 -148.5t157 -428.5v-336q0 -281 -157 -429.5t-421 -148.5t-419.5 148.5t-155.5 429.5zM334 541q0 -172 93 -271.5t261 -99.5t261 99.5t93 271.5v352q0 172 -93 271.5t-261 99.5t-261 -99.5t-93 -271.5v-352zM551 1552l142 258 h249l-196 -258h-195z" />
<glyph unicode="&#xd4;" horiz-adv-x="1378" d="M113 549v336q0 281 155.5 429t419.5 148t421 -148.5t157 -428.5v-336q0 -281 -157 -429.5t-421 -148.5t-419.5 148.5t-155.5 429.5zM313 1552l246 258h258l248 -258h-238l-123 144h-32l-123 -144h-236zM334 541q0 -172 93 -271.5t261 -99.5t261 99.5t93 271.5v352 q0 172 -93 271.5t-261 99.5t-261 -99.5t-93 -271.5v-352z" />
<glyph unicode="&#xd5;" horiz-adv-x="1378" d="M113 549v336q0 281 155.5 429t419.5 148t421 -148.5t157 -428.5v-336q0 -281 -157 -429.5t-421 -148.5t-419.5 148.5t-155.5 429.5zM334 541q0 -172 93 -271.5t261 -99.5t261 99.5t93 271.5v352q0 172 -93 271.5t-261 99.5t-261 -99.5t-93 -271.5v-352zM334 1626l66 94 q31 43 69.5 70t94.5 27q49 0 81.5 -17.5t69.5 -52.5q23 -23 43.5 -38t46.5 -15q29 0 47.5 17.5t34.5 37.5l45 63l113 -83l-66 -97q-31 -43 -69.5 -69.5t-93.5 -26.5q-47 0 -80 17.5t-70 52.5q-25 23 -45.5 39t-46.5 16q-29 0 -47.5 -18.5t-34.5 -38.5l-43 -64z" />
<glyph unicode="&#xd6;" horiz-adv-x="1378" d="M113 549v336q0 281 155.5 429t419.5 148t421 -148.5t157 -428.5v-336q0 -281 -157 -429.5t-421 -148.5t-419.5 148.5t-155.5 429.5zM329 1694q0 63 41 103t105 40q61 0 102 -40t41 -103q0 -66 -41 -105t-102 -39q-63 0 -104.5 39t-41.5 105zM334 541q0 -172 93 -271.5 t261 -99.5t261 99.5t93 271.5v352q0 172 -93 271.5t-261 99.5t-261 -99.5t-93 -271.5v-352zM759 1694q0 63 41 103t105 40q61 0 102 -40t41 -103q0 -66 -41 -105t-102 -39q-63 0 -104.5 39t-41.5 105z" />
<glyph unicode="&#xd7;" d="M213 432l285 285l-285 284l135 136l287 -283l287 283l135 -136l-285 -284l285 -285l-135 -135l-287 285l-287 -285z" />
<glyph unicode="&#xd8;" horiz-adv-x="1378" d="M113 549v336q0 281 155.5 429t419.5 148t421 -148.5t157 -428.5v-336q0 -281 -157 -429.5t-421 -148.5t-419.5 148.5t-155.5 429.5zM270 -125l695 1718l143 -59l-694 -1718zM334 541q0 -172 93 -271.5t261 -99.5t261 99.5t93 271.5v352q0 172 -93 271.5t-261 99.5 t-261 -99.5t-93 -271.5v-352z" />
<glyph unicode="&#xd9;" horiz-adv-x="1370" d="M139 492v942h223v-949q0 -152 84 -233.5t240 -81.5t240 82t84 233v949h221v-942q0 -248 -146.5 -384.5t-398.5 -136.5q-254 0 -400.5 136.5t-146.5 384.5zM432 1812h250l141 -258h-194z" />
<glyph unicode="&#xda;" horiz-adv-x="1370" d="M139 492v942h223v-949q0 -152 84 -233.5t240 -81.5t240 82t84 233v949h221v-942q0 -248 -146.5 -384.5t-398.5 -136.5q-254 0 -400.5 136.5t-146.5 384.5zM547 1552l142 258h249l-196 -258h-195z" />
<glyph unicode="&#xdb;" horiz-adv-x="1370" d="M139 492v942h223v-949q0 -152 84 -233.5t240 -81.5t240 82t84 233v949h221v-942q0 -248 -146.5 -384.5t-398.5 -136.5q-254 0 -400.5 136.5t-146.5 384.5zM309 1552l246 258h258l248 -258h-238l-123 144h-32l-123 -144h-236z" />
<glyph unicode="&#xdc;" horiz-adv-x="1370" d="M139 492v942h223v-949q0 -152 84 -233.5t240 -81.5t240 82t84 233v949h221v-942q0 -248 -146.5 -384.5t-398.5 -136.5q-254 0 -400.5 136.5t-146.5 384.5zM325 1694q0 63 41 103t105 40q61 0 102 -40t41 -103q0 -66 -41 -105t-102 -39q-63 0 -104.5 39t-41.5 105z M755 1694q0 63 41 103t105 40q61 0 102 -40t41 -103q0 -66 -41 -105t-102 -39q-63 0 -104.5 39t-41.5 105z" />
<glyph unicode="&#xdd;" horiz-adv-x="1263" d="M23 1434h249l344 -650h31l344 650h250l-498 -914v-520h-223v520zM493 1552l142 258h249l-196 -258h-195z" />
<glyph unicode="&#xde;" horiz-adv-x="1234" d="M150 0v1434h221v-254h348q131 0 234.5 -52.5t162 -147.5t58.5 -228v-27q0 -133 -60.5 -228.5t-163 -147.5t-231.5 -52h-348v-297h-221zM371 498h325q115 0 185.5 61.5t70.5 169.5v19q0 109 -69.5 170t-186.5 61h-325v-481z" />
<glyph unicode="&#xdf;" horiz-adv-x="1308" d="M156 0v893q0 180 67.5 307t186 194.5t274.5 67.5q123 0 218 -43t149.5 -117.5t54.5 -168.5q0 -88 -33 -149.5t-85 -105.5t-114 -81q-45 -27 -45 -58q0 -37 60 -57l63 -27q84 -33 153 -74.5t109.5 -106t40.5 -163.5q0 -150 -107.5 -245t-291.5 -95q-125 0 -214 42 t-141 112t-71 151l193 58q39 -188 233 -189q88 0 140.5 46.5t52.5 119.5q0 76 -55.5 115t-135.5 72l-82 32q-82 31 -122 80t-40 111q0 70 36 114t100 85q57 37 103 86t46 120q0 72 -61.5 115t-153.5 43q-74 0 -147.5 -37t-121.5 -121t-48 -225v-901h-211z" />
<glyph unicode="&#xe0;" horiz-adv-x="1181" d="M90 291q0 154 109.5 232.5t275.5 78.5h307v66q0 86 -53 140t-164 54q-109 0 -166 -51t-75 -133l-197 63q25 80 79 147.5t143 108.5t218 41q197 0 309.5 -100t112.5 -285v-415q0 -61 58 -62h86v-176h-158q-70 0 -115 37t-45 100v6h-33q-16 -33 -49 -72.5t-96.5 -69.5 t-167.5 -30q-109 0 -194 37t-135 108.5t-50 174.5zM301 297q0 -70 53.5 -111t145.5 -41q125 0 203.5 73t78.5 200v20h-295q-84 0 -135 -35.5t-51 -105.5zM311 1434h244l154 -291h-191z" />
<glyph unicode="&#xe1;" horiz-adv-x="1181" d="M90 291q0 154 109.5 232.5t275.5 78.5h307v66q0 86 -53 140t-164 54q-109 0 -166 -51t-75 -133l-197 63q25 80 79 147.5t143 108.5t218 41q197 0 309.5 -100t112.5 -285v-415q0 -61 58 -62h86v-176h-158q-70 0 -115 37t-45 100v6h-33q-16 -33 -49 -72.5t-96.5 -69.5 t-167.5 -30q-109 0 -194 37t-135 108.5t-50 174.5zM301 297q0 -70 53.5 -111t145.5 -41q125 0 203.5 73t78.5 200v20h-295q-84 0 -135 -35.5t-51 -105.5zM444 1133l154 292h244l-207 -292h-191z" />
<glyph unicode="&#xe2;" horiz-adv-x="1181" d="M90 291q0 154 109.5 232.5t275.5 78.5h307v66q0 86 -53 140t-164 54q-109 0 -166 -51t-75 -133l-197 63q25 80 79 147.5t143 108.5t218 41q197 0 309.5 -100t112.5 -285v-415q0 -61 58 -62h86v-176h-158q-70 0 -115 37t-45 100v6h-33q-16 -33 -49 -72.5t-96.5 -69.5 t-167.5 -30q-109 0 -194 37t-135 108.5t-50 174.5zM202 1133l246 292h254l246 -292h-221l-136 161h-32l-136 -161h-221zM301 297q0 -70 53.5 -111t145.5 -41q125 0 203.5 73t78.5 200v20h-295q-84 0 -135 -35.5t-51 -105.5z" />
<glyph unicode="&#xe3;" horiz-adv-x="1181" d="M90 291q0 154 109.5 232.5t275.5 78.5h307v66q0 86 -53 140t-164 54q-109 0 -166 -51t-75 -133l-197 63q25 80 79 147.5t143 108.5t218 41q197 0 309.5 -100t112.5 -285v-415q0 -61 58 -62h86v-176h-158q-70 0 -115 37t-45 100v6h-33q-16 -33 -49 -72.5t-96.5 -69.5 t-167.5 -30q-109 0 -194 37t-135 108.5t-50 174.5zM227 1188l66 117q55 94 155 94q45 0 78 -17.5t68 -52.5q23 -20 43 -38.5t45 -18.5q27 0 43 17.5t31 37.5l41 70l122 -76l-65 -117q-55 -94 -156 -94q-45 0 -78.5 17.5t-66.5 52.5q-23 23 -43.5 40t-44.5 17 q-27 0 -44.5 -16.5t-29.5 -38.5l-41 -68zM301 297q0 -70 53.5 -111t145.5 -41q125 0 203.5 73t78.5 200v20h-295q-84 0 -135 -35.5t-51 -105.5z" />
<glyph unicode="&#xe4;" horiz-adv-x="1181" d="M90 291q0 154 109.5 232.5t275.5 78.5h307v66q0 86 -53 140t-164 54q-109 0 -166 -51t-75 -133l-197 63q25 80 79 147.5t143 108.5t218 41q197 0 309.5 -100t112.5 -285v-415q0 -61 58 -62h86v-176h-158q-70 0 -115 37t-45 100v6h-33q-16 -33 -49 -72.5t-96.5 -69.5 t-167.5 -30q-109 0 -194 37t-135 108.5t-50 174.5zM229 1284q0 66 41 104.5t105 38.5q61 0 102 -38.5t41 -104.5t-41 -104.5t-102 -38.5q-63 0 -104.5 39t-41.5 104zM301 297q0 -70 53.5 -111t145.5 -41q125 0 203.5 73t78.5 200v20h-295q-84 0 -135 -35.5t-51 -105.5z M633 1284q0 66 41 104.5t102 38.5q63 0 104 -38.5t41 -104.5t-41 -104.5t-104 -38.5q-61 0 -102 39t-41 104z" />
<glyph unicode="&#xe5;" horiz-adv-x="1181" d="M90 291q0 154 109.5 232.5t275.5 78.5h307v66q0 86 -53 140t-164 54q-109 0 -166 -51t-75 -133l-197 63q25 80 79 147.5t143 108.5t218 41q197 0 309.5 -100t112.5 -285v-415q0 -61 58 -62h86v-176h-158q-70 0 -115 37t-45 100v6h-33q-16 -33 -49 -72.5t-96.5 -69.5 t-167.5 -30q-109 0 -194 37t-135 108.5t-50 174.5zM301 297q0 -70 53.5 -111t145.5 -41q125 0 203.5 73t78.5 200v20h-295q-84 0 -135 -35.5t-51 -105.5zM368 1309q0 86 59.5 143t147.5 57t148.5 -56t60.5 -144q0 -92 -62.5 -146.5t-146.5 -54.5q-86 0 -146.5 56.5 t-60.5 144.5zM501 1309q0 -33 20.5 -54.5t53.5 -21.5q35 0 55.5 21.5t20.5 54.5q0 31 -20.5 52t-55.5 21q-33 0 -53.5 -21.5t-20.5 -51.5z" />
<glyph unicode="&#xe6;" horiz-adv-x="1841" d="M90 289q0 154 110.5 231.5t284.5 77.5h310v70q0 86 -60.5 140t-171.5 54q-109 0 -170 -51t-86 -133l-188 65q27 80 82 146.5t145 107.5t217 41q129 0 212 -46t128 -120h29q63 78 152.5 122t197.5 44q143 0 246.5 -65.5t159 -177t55.5 -252.5v-107h-742q6 -125 84 -202.5 t205 -77.5q115 0 175.5 52t90.5 111l162 -108q-39 -61 -92 -116.5t-132 -89.5t-196 -34q-127 0 -227 56.5t-164 150.5h-28q-20 -43 -65.5 -91t-123 -82t-196.5 -34q-176 0 -290 82t-114 236zM297 295q0 -68 57.5 -110t157.5 -42q127 0 205 75t78 202v16h-297 q-90 0 -145.5 -35.5t-55.5 -105.5zM1004 598h530q-4 121 -73.5 187.5t-184.5 66.5q-119 0 -191.5 -68.5t-80.5 -185.5z" />
<glyph unicode="&#xe7;" horiz-adv-x="1212" d="M106 492v26q0 162 69 278.5t186.5 179t263.5 62.5q145 0 248.5 -53t164 -141t80.5 -195l-205 -43q-14 100 -82.5 172t-201.5 72q-131 0 -221.5 -88t-90.5 -248v-18q0 -160 90.5 -248t221.5 -88q133 0 202.5 68.5t88.5 174.5l204 -47q-25 -104 -87 -192t-164.5 -140.5 t-247.5 -52.5t-263 61.5t-187 178.5t-69 281zM403 -381l45 129q37 -16 79 -28.5t93 -12.5q43 0 71 15.5t28 48.5q0 61 -103 61h-76l17 211h149l-10 -129q78 0 130 -43t52 -123q0 -92 -75.5 -135t-173.5 -43q-63 0 -123 14.5t-103 34.5z" />
<glyph unicode="&#xe8;" horiz-adv-x="1196" d="M106 492v24q0 158 65 274.5t177.5 182t261.5 65.5q145 0 255 -64.5t171.5 -179t61.5 -268.5v-80h-776q4 -133 89 -211.5t212 -78.5q119 0 179 53t93 123l176 -90q-31 -57 -84 -121t-143.5 -107t-225.5 -43q-154 0 -268 64.5t-179 181.5t-65 275zM324 608h561 q-10 113 -84 178.5t-193 65.5t-193.5 -65.5t-90.5 -178.5zM344 1434h244l154 -291h-191z" />
<glyph unicode="&#xe9;" horiz-adv-x="1196" d="M106 492v24q0 158 65 274.5t177.5 182t261.5 65.5q145 0 255 -64.5t171.5 -179t61.5 -268.5v-80h-776q4 -133 89 -211.5t212 -78.5q119 0 179 53t93 123l176 -90q-31 -57 -84 -121t-143.5 -107t-225.5 -43q-154 0 -268 64.5t-179 181.5t-65 275zM324 608h561 q-10 113 -84 178.5t-193 65.5t-193.5 -65.5t-90.5 -178.5zM477 1133l154 292h244l-207 -292h-191z" />
<glyph unicode="&#xea;" horiz-adv-x="1196" d="M106 492v24q0 158 65 274.5t177.5 182t261.5 65.5q145 0 255 -64.5t171.5 -179t61.5 -268.5v-80h-776q4 -133 89 -211.5t212 -78.5q119 0 179 53t93 123l176 -90q-31 -57 -84 -121t-143.5 -107t-225.5 -43q-154 0 -268 64.5t-179 181.5t-65 275zM237 1133l246 292h254 l246 -292h-221l-136 161h-32l-136 -161h-221zM324 608h561q-10 113 -84 178.5t-193 65.5t-193.5 -65.5t-90.5 -178.5z" />
<glyph unicode="&#xeb;" horiz-adv-x="1196" d="M106 492v24q0 158 65 274.5t177.5 182t261.5 65.5q145 0 255 -64.5t171.5 -179t61.5 -268.5v-80h-776q4 -133 89 -211.5t212 -78.5q119 0 179 53t93 123l176 -90q-31 -57 -84 -121t-143.5 -107t-225.5 -43q-154 0 -268 64.5t-179 181.5t-65 275zM264 1284q0 66 41 104.5 t105 38.5q61 0 102 -38.5t41 -104.5t-41 -104.5t-102 -38.5q-63 0 -104.5 39t-41.5 104zM324 608h561q-10 113 -84 178.5t-193 65.5t-193.5 -65.5t-90.5 -178.5zM668 1284q0 66 41 104.5t102 38.5q63 0 104 -38.5t41 -104.5t-41 -104.5t-104 -38.5q-61 0 -102 39t-41 104z " />
<glyph unicode="&#xec;" horiz-adv-x="524" d="M-4 1434h244l154 -291h-191zM156 0v1010h211v-1010h-211z" />
<glyph unicode="&#xed;" horiz-adv-x="524" d="M129 1133l154 292h244l-207 -292h-191zM156 0v1010h211v-1010h-211z" />
<glyph unicode="&#xee;" horiz-adv-x="524" d="M-111 1133l246 292h254l246 -292h-221l-136 161h-32l-136 -161h-221zM156 0v1010h211v-1010h-211z" />
<glyph unicode="&#xef;" horiz-adv-x="524" d="M-84 1284q0 66 41 104.5t105 38.5q61 0 102 -38.5t41 -104.5t-41 -104.5t-102 -38.5q-63 0 -104.5 39t-41.5 104zM156 0v1010h211v-1010h-211zM320 1284q0 66 41 104.5t102 38.5q63 0 104 -38.5t41 -104.5t-41 -104.5t-104 -38.5q-61 0 -102 39t-41 104z" />
<glyph unicode="&#xf0;" horiz-adv-x="1259" d="M106 492v22q0 154 62.5 267.5t169 177t237.5 65.5q111 0 183.5 -36t124.5 -93h30q-49 199 -233 334l-94 -129l-105 76l88 120q-76 41 -168 72l66 166q115 -35 211 -90l86 121l106 -78l-84 -113q180 -135 274.5 -337.5t94.5 -465.5q0 -293 -144 -445.5t-380 -154.5 q-156 -2 -273.5 63.5t-184.5 183.5t-67 274zM317 498q0 -158 87.5 -248t224.5 -90t225 90t88 248v10q0 158 -87 249t-226 91t-225.5 -91t-86.5 -249v-10z" />
<glyph unicode="&#xf1;" horiz-adv-x="1259" d="M156 0v1010h206v-152h33q29 61 102.5 114.5t219.5 53.5q115 0 204 -51t140 -145.5t51 -223.5v-606h-211v590q0 131 -65.5 193.5t-180.5 62.5q-131 0 -209.5 -86t-78.5 -250v-510h-211zM276 1188l66 117q55 94 155 94q45 0 78 -17.5t68 -52.5q23 -20 43 -38.5t45 -18.5 q27 0 43 17.5t31 37.5l41 70l122 -76l-65 -117q-55 -94 -156 -94q-45 0 -78.5 17.5t-66.5 52.5q-23 23 -43.5 40t-44.5 17q-27 0 -44.5 -16.5t-29.5 -38.5l-41 -68z" />
<glyph unicode="&#xf2;" horiz-adv-x="1259" d="M106 489v31q0 160 68 275.5t185.5 179t269.5 63.5t270.5 -63.5t186 -179t67.5 -275.5v-31q0 -160 -67.5 -276.5t-186 -179t-270.5 -62.5t-269.5 62.5t-185.5 179.5t-68 276zM317 496q0 -158 87.5 -247t224.5 -89q139 0 226 89t87 247v18q0 158 -87 247t-226 89 t-225.5 -89t-86.5 -247v-18zM364 1434h244l154 -291h-191z" />
<glyph unicode="&#xf3;" horiz-adv-x="1259" d="M106 489v31q0 160 68 275.5t185.5 179t269.5 63.5t270.5 -63.5t186 -179t67.5 -275.5v-31q0 -160 -67.5 -276.5t-186 -179t-270.5 -62.5t-269.5 62.5t-185.5 179.5t-68 276zM317 496q0 -158 87.5 -247t224.5 -89q139 0 226 89t87 247v18q0 158 -87 247t-226 89 t-225.5 -89t-86.5 -247v-18zM497 1133l154 292h244l-207 -292h-191z" />
<glyph unicode="&#xf4;" horiz-adv-x="1259" d="M106 489v31q0 160 68 275.5t185.5 179t269.5 63.5t270.5 -63.5t186 -179t67.5 -275.5v-31q0 -160 -67.5 -276.5t-186 -179t-270.5 -62.5t-269.5 62.5t-185.5 179.5t-68 276zM256 1133l246 292h254l246 -292h-221l-136 161h-32l-136 -161h-221zM317 496q0 -158 87.5 -247 t224.5 -89q139 0 226 89t87 247v18q0 158 -87 247t-226 89t-225.5 -89t-86.5 -247v-18z" />
<glyph unicode="&#xf5;" horiz-adv-x="1259" d="M106 489v31q0 160 68 275.5t185.5 179t269.5 63.5t270.5 -63.5t186 -179t67.5 -275.5v-31q0 -160 -67.5 -276.5t-186 -179t-270.5 -62.5t-269.5 62.5t-185.5 179.5t-68 276zM280 1188l66 117q55 94 155 94q45 0 78 -17.5t68 -52.5q23 -20 43 -38.5t45 -18.5q27 0 43 17.5 t31 37.5l41 70l122 -76l-65 -117q-55 -94 -156 -94q-45 0 -78.5 17.5t-66.5 52.5q-23 23 -43.5 40t-44.5 17q-27 0 -44.5 -16.5t-29.5 -38.5l-41 -68zM317 496q0 -158 87.5 -247t224.5 -89q139 0 226 89t87 247v18q0 158 -87 247t-226 89t-225.5 -89t-86.5 -247v-18z" />
<glyph unicode="&#xf6;" horiz-adv-x="1259" d="M106 489v31q0 160 68 275.5t185.5 179t269.5 63.5t270.5 -63.5t186 -179t67.5 -275.5v-31q0 -160 -67.5 -276.5t-186 -179t-270.5 -62.5t-269.5 62.5t-185.5 179.5t-68 276zM282 1284q0 66 41 104.5t105 38.5q61 0 102 -38.5t41 -104.5t-41 -104.5t-102 -38.5 q-63 0 -104.5 39t-41.5 104zM317 496q0 -158 87.5 -247t224.5 -89q139 0 226 89t87 247v18q0 158 -87 247t-226 89t-225.5 -89t-86.5 -247v-18zM686 1284q0 66 41 104.5t102 38.5q63 0 104 -38.5t41 -104.5t-41 -104.5t-104 -38.5q-61 0 -102 39t-41 104z" />
<glyph unicode="&#xf7;" d="M207 621v192h856v-192h-856zM479 352q0 66 45 111t111 45t111 -45t45 -111t-45 -110.5t-111 -44.5t-111 45t-45 110zM479 1081q0 66 45 111t111 45t111 -45t45 -111t-45 -110.5t-111 -44.5t-111 45t-45 110z" />
<glyph unicode="&#xf8;" horiz-adv-x="1259" d="M106 489v31q0 160 68 275.5t185.5 179t269.5 63.5t270.5 -63.5t186 -179t67.5 -275.5v-31q0 -160 -67.5 -276.5t-186 -179t-270.5 -62.5t-269.5 62.5t-185.5 179.5t-68 276zM195 -57l745 1192l123 -78l-746 -1192zM317 496q0 -158 87.5 -247t224.5 -89q139 0 226 89 t87 247v18q0 158 -87 247t-226 89t-225.5 -89t-86.5 -247v-18z" />
<glyph unicode="&#xf9;" horiz-adv-x="1257" d="M145 403v607h211v-592q0 -131 65.5 -193.5t182.5 -62.5q129 0 208 87t79 251v510h211v-1010h-207v152h-33q-29 -61 -102.5 -115.5t-216.5 -54.5q-115 0 -205 51t-141.5 145t-51.5 225zM358 1434h244l154 -291h-191z" />
<glyph unicode="&#xfa;" horiz-adv-x="1257" d="M145 403v607h211v-592q0 -131 65.5 -193.5t182.5 -62.5q129 0 208 87t79 251v510h211v-1010h-207v152h-33q-29 -61 -102.5 -115.5t-216.5 -54.5q-115 0 -205 51t-141.5 145t-51.5 225zM491 1133l154 292h244l-207 -292h-191z" />
<glyph unicode="&#xfb;" horiz-adv-x="1257" d="M145 403v607h211v-592q0 -131 65.5 -193.5t182.5 -62.5q129 0 208 87t79 251v510h211v-1010h-207v152h-33q-29 -61 -102.5 -115.5t-216.5 -54.5q-115 0 -205 51t-141.5 145t-51.5 225zM250 1133l246 292h254l246 -292h-221l-136 161h-32l-136 -161h-221z" />
<glyph unicode="&#xfc;" horiz-adv-x="1257" d="M145 403v607h211v-592q0 -131 65.5 -193.5t182.5 -62.5q129 0 208 87t79 251v510h211v-1010h-207v152h-33q-29 -61 -102.5 -115.5t-216.5 -54.5q-115 0 -205 51t-141.5 145t-51.5 225zM278 1284q0 66 41 104.5t105 38.5q61 0 102 -38.5t41 -104.5t-41 -104.5t-102 -38.5 q-63 0 -104.5 39t-41.5 104zM682 1284q0 66 41 104.5t102 38.5q63 0 104 -38.5t41 -104.5t-41 -104.5t-104 -38.5q-61 0 -102 39t-41 104z" />
<glyph unicode="&#xfd;" horiz-adv-x="1257" d="M145 401v609h211v-592q0 -131 65.5 -193.5t182.5 -62.5q129 0 208 87t79 249v512h211v-1217q0 -92 -54.5 -147.5t-148.5 -55.5h-627v185h564q57 0 57 61v311h-33q-29 -59 -101.5 -112t-215.5 -53q-115 0 -205 51t-141.5 145t-51.5 223zM493 1133l154 292h244l-207 -292 h-191z" />
<glyph unicode="&#xfe;" horiz-adv-x="1310" d="M156 -410v1844h211v-562h30q37 61 116 113.5t226 52.5q127 0 232.5 -62.5t169 -178t63.5 -277.5v-31q0 -164 -63.5 -279.5t-169 -177t-232.5 -61.5q-147 0 -226 52.5t-116 111.5h-30v-545h-211zM365 496q0 -164 89 -252t224 -88q137 0 226 88t89 252v18q0 162 -89 250 t-226 88q-135 0 -224 -88t-89 -250v-18z" />
<glyph unicode="&#xff;" horiz-adv-x="1257" d="M145 401v609h211v-592q0 -131 65.5 -193.5t182.5 -62.5q129 0 208 87t79 249v512h211v-1217q0 -92 -54.5 -147.5t-148.5 -55.5h-627v185h564q57 0 57 61v311h-33q-29 -59 -101.5 -112t-215.5 -53q-115 0 -205 51t-141.5 145t-51.5 223zM278 1284q0 66 41 104.5t105 38.5 q61 0 102 -38.5t41 -104.5t-41 -104.5t-102 -38.5q-63 0 -104.5 39t-41.5 104zM682 1284q0 66 41 104.5t102 38.5q63 0 104 -38.5t41 -104.5t-41 -104.5t-104 -38.5q-61 0 -102 39t-41 104z" />
<glyph unicode="&#x152;" horiz-adv-x="1714" d="M113 649v135q0 317 181 483.5t511 166.5h817v-201h-598v-412h541v-200h-541v-420h608v-201h-827q-330 0 -511 166t-181 483zM334 637q0 -209 111.5 -329t359.5 -120v1057q-248 0 -359.5 -119.5t-111.5 -328.5v-160z" />
<glyph unicode="&#x153;" horiz-adv-x="2054" d="M106 489v31q0 160 67 275.5t182.5 179t265.5 63.5q147 0 252.5 -61.5t162.5 -167.5h33q59 104 163.5 166.5t235.5 62.5q145 0 255 -64.5t170.5 -179t60.5 -268.5v-80h-776q6 -131 90 -210.5t213 -79.5q119 0 178 53t92 123l176 -88q-31 -59 -84 -123t-140 -107t-222 -43 q-145 0 -253 62.5t-159 167.5h-33q-57 -106 -162.5 -168t-252.5 -62q-150 0 -265.5 62.5t-182.5 179.5t-67 276zM317 496q0 -158 87.5 -247t224.5 -89t225 89t88 247v18q0 156 -87 245t-226 89t-225.5 -89t-86.5 -245v-18zM1180 608h559q-8 113 -82 178.5t-191 65.5 q-121 0 -196.5 -67.5t-89.5 -176.5z" />
<glyph unicode="&#x178;" horiz-adv-x="1263" d="M23 1434h249l344 -650h31l344 650h250l-498 -914v-520h-223v520zM272 1694q0 63 41 103t105 40q61 0 102 -40t41 -103q0 -66 -41 -105t-102 -39q-63 0 -104.5 39t-41.5 105zM702 1694q0 63 41 103t105 40q61 0 102 -40t41 -103q0 -66 -41 -105t-102 -39q-63 0 -104.5 39 t-41.5 105z" />
<glyph unicode="&#x2c6;" horiz-adv-x="937" d="M96 1133l246 292h254l246 -292h-221l-136 161h-32l-136 -161h-221z" />
<glyph unicode="&#x2dc;" horiz-adv-x="884" d="M96 1188l66 117q55 94 155 94q45 0 78 -17.5t68 -52.5q23 -20 43 -38.5t45 -18.5q27 0 43 17.5t31 37.5l41 70l122 -76l-65 -117q-55 -94 -156 -94q-45 0 -78.5 17.5t-66.5 52.5q-23 23 -43.5 40t-44.5 17q-27 0 -44.5 -16.5t-29.5 -38.5l-41 -68z" />
<glyph unicode="&#x2000;" horiz-adv-x="966" />
<glyph unicode="&#x2001;" horiz-adv-x="1933" />
<glyph unicode="&#x2002;" horiz-adv-x="966" />
<glyph unicode="&#x2003;" horiz-adv-x="1933" />
<glyph unicode="&#x2004;" horiz-adv-x="644" />
<glyph unicode="&#x2005;" horiz-adv-x="483" />
<glyph unicode="&#x2006;" horiz-adv-x="322" />
<glyph unicode="&#x2007;" horiz-adv-x="322" />
<glyph unicode="&#x2008;" horiz-adv-x="241" />
<glyph unicode="&#x2009;" horiz-adv-x="386" />
<glyph unicode="&#x200a;" horiz-adv-x="107" />
<glyph unicode="&#x2010;" horiz-adv-x="907" d="M152 428v193h606v-193h-606z" />
<glyph unicode="&#x2011;" horiz-adv-x="907" d="M152 428v193h606v-193h-606z" />
<glyph unicode="&#x2012;" horiz-adv-x="907" d="M152 428v193h606v-193h-606z" />
<glyph unicode="&#x2013;" horiz-adv-x="1218" d="M152 428v193h917v-193h-917z" />
<glyph unicode="&#x2014;" horiz-adv-x="1841" d="M152 428v193h1540v-193h-1540z" />
<glyph unicode="&#x2018;" horiz-adv-x="559" d="M115 1047v213q0 203 202 203h84v-121h-69q-84 0 -84 -84v-66h30q72 0 119 -43t47 -108q0 -72 -47 -116t-119 -44q-70 0 -116.5 46t-46.5 120z" />
<glyph unicode="&#x2019;" horiz-adv-x="559" d="M115 1302q0 72 47 116t119 44q70 0 116.5 -46t46.5 -120v-213q0 -203 -202 -203h-84v121h69q84 0 84 84v66h-30q-72 0 -119 43t-47 108z" />
<glyph unicode="&#x201a;" horiz-adv-x="559" d="M115 143q0 72 47 116t119 44q70 0 116.5 -46t46.5 -120v-213q0 -203 -202 -203h-84v121h69q84 0 84 84v66h-30q-72 0 -119 43t-47 108z" />
<glyph unicode="&#x201c;" horiz-adv-x="962" d="M115 1047v213q0 203 202 203h84v-121h-69q-84 0 -84 -84v-66h30q72 0 119 -43t47 -108q0 -72 -47 -116t-119 -44q-70 0 -116.5 46t-46.5 120zM519 1047v213q0 203 202 203h84v-121h-69q-84 0 -84 -84v-66h30q72 0 119 -43t47 -108q0 -72 -47 -116t-119 -44 q-70 0 -116.5 46t-46.5 120z" />
<glyph unicode="&#x201d;" horiz-adv-x="962" d="M115 1302q0 72 47 116t119 44q70 0 116.5 -46t46.5 -120v-213q0 -203 -202 -203h-84v121h69q84 0 84 84v66h-30q-72 0 -119 43t-47 108zM518 1302q0 72 47 116t119 44q70 0 116.5 -46t46.5 -120v-213q0 -203 -202 -203h-84v121h69q84 0 84 84v66h-30q-72 0 -119 43 t-47 108z" />
<glyph unicode="&#x201e;" horiz-adv-x="962" d="M115 143q0 72 47 116t119 44q70 0 116.5 -46t46.5 -120v-213q0 -203 -202 -203h-84v121h69q84 0 84 84v66h-30q-72 0 -119 43t-47 108zM518 143q0 72 47 116t119 44q70 0 116.5 -46t46.5 -120v-213q0 -203 -202 -203h-84v121h69q84 0 84 84v66h-30q-72 0 -119 43t-47 108 z" />
<glyph unicode="&#x2022;" horiz-adv-x="778" d="M119 524q0 76 35.5 137.5t96 96.5t138.5 35q117 0 193.5 -76t76.5 -193q0 -78 -36.5 -139t-98 -95t-135.5 -34q-76 0 -137.5 35t-97 96.5t-35.5 136.5z" />
<glyph unicode="&#x2026;" horiz-adv-x="1513" d="M115 139q0 74 48 120t120 46t120 -46t48 -120t-48 -121t-120 -47t-120 47.5t-48 120.5zM590 139q0 74 48 120t120 46t120 -46t48 -120t-48 -121t-120 -47t-120 47.5t-48 120.5zM1065 139q0 74 48 120t120 46t120 -46t48 -120t-48 -121t-120 -47t-120 47.5t-48 120.5z" />
<glyph unicode="&#x202f;" horiz-adv-x="386" />
<glyph unicode="&#x2039;" horiz-adv-x="964" d="M106 385v244l705 358h12v-225l-508 -240v-30l508 -238v-225h-12z" />
<glyph unicode="&#x203a;" horiz-adv-x="964" d="M141 29v225l508 238v30l-508 240v225h13l704 -358v-244l-704 -356h-13z" />
<glyph unicode="&#x205f;" horiz-adv-x="483" />
<glyph unicode="&#x20ac;" horiz-adv-x="1392" d="M80 496v174h139v114h-139v172h141q23 240 167 373t384 133q254 0 390 -140t136 -380v-37h-223v29q0 147 -74.5 237.5t-228.5 90.5q-147 0 -230 -84t-98 -222h324v-172h-328v-114h328v-174h-326q10 -150 92 -237t238 -87q164 0 233.5 91t69.5 237v35h223v-43 q0 -238 -132 -379.5t-394 -141.5q-242 0 -388 133.5t-163 391.5h-141z" />
<glyph unicode="&#x2122;" horiz-adv-x="1144" d="M74 1358v76h389v-76h-154v-379h-84v379h-151zM524 979v455h156l96 -379h17l94 379h157v-455h-81v379h-19l-96 -379h-129l-94 379h-19v-379h-82z" />
<glyph unicode="&#x25fc;" horiz-adv-x="1013" d="M0 0v1014h1014v-1014h-1014z" />
</font>
</defs>
</svg>
